<?xml version="1.0" encoding="UTF-8" standalone="no"?>
<svg width="960px" height="100px" viewBox="0 0 960 100" version="1.1" xmlns="http://www.w3.org/2000/svg" xmlns:xlink="http://www.w3.org/1999/xlink">
    <!-- Generator: Sketch 41.2 (35397) - http://www.bohemiancoding.com/sketch -->
    <title>Group 2</title>
    <desc>Created with Sketch.</desc>
    <defs>
        <rect id="path-1" x="0" y="0" width="960" height="100"></rect>
        <path d="M41.8801649,108.912924 C45.8123412,96.2584655 59.7392596,86.052475 73.0050308,86.1172952 L511.994969,88.2623218 C525.252582,88.3271022 531.836762,98.2892971 526.704317,110.50596 L474.295683,235.253274 C469.161819,247.473316 454.249328,257.507903 440.995508,257.66606 L18.0044922,262.713557 C4.74717721,262.871755 -2.81027234,252.734876 1.11983512,240.087076 L41.8801649,108.912924 Z" id="path-3"></path>
        <filter x="-50%" y="-50%" width="200%" height="200%" filterUnits="objectBoundingBox" id="filter-4">
            <feOffset dx="0" dy="9" in="SourceAlpha" result="shadowOffsetOuter1"></feOffset>
            <feGaussianBlur stdDeviation="19" in="shadowOffsetOuter1" result="shadowBlurOuter1"></feGaussianBlur>
            <feColorMatrix values="0 0 0 0 0   0 0 0 0 0   0 0 0 0 0  0 0 0 0.278787364 0" type="matrix" in="shadowBlurOuter1"></feColorMatrix>
        </filter>
        <polygon id="path-5" points="12.4541149 0.539583333 0.0462162162 0.539583333 0.0462162162 36.8211667 24.8620135 36.8211667 24.8620135 0.539583333 12.4541149 0.539583333"></polygon>
        <polygon id="path-7" points="0.352783784 28.4745833 39.5079324 28.4745833 39.5079324 0.733833333 0.352783784 0.733833333"></polygon>
        <path d="M215.4656,177.39168 C221.3408,177.39168 223.20128,174.02976 223.20128,171.22272 C223.20128,163.09536 210.14528,166.16352 210.14528,160.58208 C210.14528,158.232 212.33216,156.56736 215.23712,156.56736 C217.68512,156.56736 219.90464,157.416 221.47136,159.30912 L222.71168,157.93824 C221.04704,156.01248 218.5664,154.87008 215.33504,154.87008 C211.3856,154.87008 208.18688,157.12224 208.18688,160.68 C208.18688,168.28512 221.24288,164.95584 221.24288,171.35328 C221.24288,173.21376 219.96992,175.6944 215.53088,175.6944 C212.39744,175.6944 210.11264,174.12768 208.70912,172.52832 L207.50144,173.93184 C209.16608,175.92288 211.8752,177.39168 215.4656,177.39168 Z M239.9456,177 L239.9456,161.23488 L238.24832,161.23488 L238.24832,173.2464 C237.20384,174.64992 235.14752,175.8576 233.12384,175.8576 C230.83904,175.8576 229.30496,175.00896 229.30496,171.9408 L229.30496,161.23488 L227.60768,161.23488 L227.60768,172.33248 C227.60768,175.89024 229.37024,177.39168 232.56896,177.39168 C234.85376,177.39168 236.97536,176.11872 238.24832,174.68256 L238.24832,177 L239.9456,177 Z M246.93056,173.05056 L246.93056,165.2496 C247.84448,163.74816 249.93344,162.37728 252.12032,162.37728 C255.64544,162.37728 257.63648,165.31488 257.63648,169.13376 C257.63648,172.95264 255.64544,175.8576 252.12032,175.8576 C249.93344,175.8576 247.84448,174.552 246.93056,173.05056 Z M246.93056,177 L246.93056,174.48672 C248.04032,176.11872 250.064,177.39168 252.41408,177.39168 C256.592,177.39168 259.46432,174.19296 259.46432,169.13376 C259.46432,164.13984 256.62464,160.8432 252.41408,160.8432 C250.19456,160.8432 248.20352,161.9856 246.93056,163.7808 L246.93056,155.22912 L245.23328,155.22912 L245.23328,177 L246.93056,177 Z M267.29792,177.39168 C268.60352,177.39168 269.35424,177 269.9744,176.41248 L269.3216,175.10688 C268.96256,175.49856 268.30976,175.8576 267.55904,175.8576 C266.44928,175.8576 265.92704,174.97632 265.92704,173.70336 L265.92704,162.73632 L269.12576,162.73632 L269.12576,161.23488 L265.92704,161.23488 L265.92704,156.9264 L264.19712,156.9264 L264.19712,161.23488 L261.58592,161.23488 L261.58592,162.73632 L264.19712,162.73632 L264.19712,173.96448 C264.19712,176.11872 265.20896,177.39168 267.29792,177.39168 Z M274.544,177 L274.544,155.22912 L272.84672,155.22912 L272.84672,177 L274.544,177 Z M286.81664,177.39168 C289.42784,177.39168 291.41888,176.47776 292.9856,174.84576 L292.10432,173.736 C290.76608,175.17216 288.93824,175.92288 286.9472,175.92288 C283.22624,175.92288 280.94144,173.0832 280.77824,169.656 L293.9648,169.656 L293.9648,169.19904 C293.9648,164.62944 291.32096,160.8432 286.52288,160.8432 C282.14912,160.8432 278.9504,164.53152 278.9504,169.10112 C278.9504,173.96448 282.2144,177.39168 286.81664,177.39168 Z M292.23488,168.31776 L280.77824,168.31776 C280.9088,165.576 282.76928,162.312 286.49024,162.312 C290.43968,162.312 292.20224,165.64128 292.23488,168.31776 Z M308.71808,177 L308.71808,167.95872 L315.0176,167.95872 C319.16288,167.95872 321.57824,165.02112 321.57824,161.59392 C321.57824,158.16672 319.19552,155.22912 315.0176,155.22912 L306.8576,155.22912 L306.8576,177 L308.71808,177 Z M314.82176,166.26144 L308.71808,166.26144 L308.71808,156.9264 L314.82176,156.9264 C317.72672,156.9264 319.61984,158.85216 319.61984,161.59392 C319.61984,164.30304 317.72672,166.26144 314.82176,166.26144 Z M336.49472,177 L336.49472,165.9024 C336.49472,162.37728 333.9488,160.8432 330.75008,160.8432 C328.13888,160.8432 326.31104,161.72448 324.67904,163.48704 L325.6256,164.66208 C327.06176,163.03008 328.59584,162.34464 330.58688,162.34464 C332.90432,162.34464 334.79744,163.6176 334.79744,165.96768 L334.79744,169.1664 C333.42656,167.63232 331.63136,166.91424 329.44448,166.91424 C326.70272,166.91424 323.92832,168.70944 323.92832,172.13664 C323.92832,175.5312 326.73536,177.39168 329.44448,177.39168 C331.63136,177.39168 333.39392,176.6736 334.79744,175.13952 L334.79744,177 L336.49472,177 Z M330.032,176.05344 C327.45344,176.05344 325.72352,174.3888 325.72352,172.16928 C325.72352,169.91712 327.45344,168.25248 330.032,168.25248 C331.92512,168.25248 333.68768,168.97056 334.79744,170.43936 L334.79744,173.8992 C333.68768,175.33536 331.92512,176.05344 330.032,176.05344 Z M345.2096,177.39168 C346.5152,177.39168 347.26592,177 347.88608,176.41248 L347.23328,175.10688 C346.87424,175.49856 346.22144,175.8576 345.47072,175.8576 C344.36096,175.8576 343.83872,174.97632 343.83872,173.70336 L343.83872,162.73632 L347.03744,162.73632 L347.03744,161.23488 L343.83872,161.23488 L343.83872,156.9264 L342.1088,156.9264 L342.1088,161.23488 L339.4976,161.23488 L339.4976,162.73632 L342.1088,162.73632 L342.1088,173.96448 C342.1088,176.11872 343.12064,177.39168 345.2096,177.39168 Z M354.1856,177.39168 C355.4912,177.39168 356.24192,177 356.86208,176.41248 L356.20928,175.10688 C355.85024,175.49856 355.19744,175.8576 354.44672,175.8576 C353.33696,175.8576 352.81472,174.97632 352.81472,173.70336 L352.81472,162.73632 L356.01344,162.73632 L356.01344,161.23488 L352.81472,161.23488 L352.81472,156.9264 L351.0848,156.9264 L351.0848,161.23488 L348.4736,161.23488 L348.4736,162.73632 L351.0848,162.73632 L351.0848,173.96448 C351.0848,176.11872 352.09664,177.39168 354.1856,177.39168 Z M366.71936,177.39168 C369.33056,177.39168 371.3216,176.47776 372.88832,174.84576 L372.00704,173.736 C370.6688,175.17216 368.84096,175.92288 366.84992,175.92288 C363.12896,175.92288 360.84416,173.0832 360.68096,169.656 L373.86752,169.656 L373.86752,169.19904 C373.86752,164.62944 371.22368,160.8432 366.4256,160.8432 C362.05184,160.8432 358.85312,164.53152 358.85312,169.10112 C358.85312,173.96448 362.11712,177.39168 366.71936,177.39168 Z M372.1376,168.31776 L360.68096,168.31776 C360.81152,165.576 362.672,162.312 366.39296,162.312 C370.3424,162.312 372.10496,165.64128 372.1376,168.31776 Z M379.93856,177 L379.93856,165.51072 C380.65664,164.13984 382.81088,162.70368 384.41024,162.70368 C384.73664,162.70368 384.96512,162.70368 385.25888,162.76896 L385.25888,160.90848 C383.072,160.90848 381.2768,162.18144 379.93856,163.944 L379.93856,161.23488 L378.24128,161.23488 L378.24128,177 L379.93856,177 Z M400.92608,177 L400.92608,165.96768 C400.92608,162.40992 399.16352,160.8432 395.9648,160.8432 C393.68,160.8432 391.42784,162.24672 390.28544,163.6176 L390.28544,161.23488 L388.58816,161.23488 L388.58816,177 L390.28544,177 L390.28544,165.0864 C391.29728,163.65024 393.38624,162.37728 395.40992,162.37728 C397.69472,162.37728 399.2288,163.2912 399.2288,166.32672 L399.2288,177 L400.92608,177 Z M410.91392,177.39168 C414.86336,177.39168 416.82176,175.30272 416.82176,172.7568 C416.82176,166.68576 406.8992,169.10112 406.8992,165.15168 C406.8992,163.51968 408.368,162.27936 410.816,162.27936 C412.90496,162.27936 414.60224,163.128 415.51616,164.36832 L416.46272,163.16064 C415.32032,161.88768 413.52512,160.8432 410.816,160.8432 C407.25824,160.8432 405.20192,162.8016 405.20192,165.21696 C405.20192,170.89632 415.15712,168.44832 415.15712,172.7568 C415.15712,174.58464 413.5904,175.95552 410.94656,175.95552 C408.72704,175.95552 406.86656,174.91104 405.85472,173.63808 L404.84288,174.8784 C406.4096,176.64096 408.368,177.39168 410.91392,177.39168 Z M422.14208,177.29376 C422.92544,177.29376 423.57824,176.64096 423.57824,175.8576 C423.57824,175.10688 422.92544,174.45408 422.14208,174.45408 C421.35872,174.45408 420.67328,175.10688 420.67328,175.8576 C420.67328,176.64096 421.35872,177.29376 422.14208,177.29376 Z" id="path-9"></path>
        <filter x="-50%" y="-50%" width="200%" height="200%" filterUnits="objectBoundingBox" id="filter-10">
            <feOffset dx="0" dy="1" in="SourceAlpha" result="shadowOffsetOuter1"></feOffset>
            <feGaussianBlur stdDeviation="0.5" in="shadowOffsetOuter1" result="shadowBlurOuter1"></feGaussianBlur>
            <feColorMatrix values="0 0 0 0 0   0 0 0 0 0   0 0 0 0 0  0 0 0 0.0594429348 0" type="matrix" in="shadowBlurOuter1"></feColorMatrix>
        </filter>
        <path d="M545.35872,177 C548.86656,177 550.75968,174.85632 550.75968,171.96096 C550.75968,169.70592 549.1728,167.72928 547.16832,167.42304 C548.8944,167.06112 550.39776,165.47424 550.39776,163.16352 C550.39776,160.54656 548.53248,158.43072 545.10816,158.43072 L535.97664,158.43072 L535.97664,177 L545.35872,177 Z M544.46784,166.08672 L539.23392,166.08672 L539.23392,161.29824 L544.46784,161.29824 C546.1104,161.29824 547.05696,162.32832 547.05696,163.69248 C547.05696,165.11232 546.1104,166.08672 544.46784,166.08672 Z M544.60704,174.13248 L539.23392,174.13248 L539.23392,168.95424 L544.60704,168.95424 C546.44448,168.95424 547.41888,170.15136 547.41888,171.54336 C547.41888,173.15808 546.36096,174.13248 544.60704,174.13248 Z M556.88448,177 L556.88448,167.84064 C557.46912,166.86624 559.11168,166.03104 560.36448,166.03104 C560.7264,166.03104 561.0048,166.05888 561.25536,166.11456 L561.25536,163.2192 C559.52928,163.2192 557.91456,164.22144 556.88448,165.50208 L556.88448,163.55328 L553.96128,163.55328 L553.96128,177 L556.88448,177 Z M569.71872,177.33408 C574.00608,177.33408 576.62304,174.10464 576.62304,170.26272 C576.62304,166.39296 574.00608,163.2192 569.71872,163.2192 C565.43136,163.2192 562.8144,166.39296 562.8144,170.26272 C562.8144,174.10464 565.43136,177.33408 569.71872,177.33408 Z M569.71872,174.74496 C567.24096,174.74496 565.84896,172.65696 565.84896,170.26272 C565.84896,167.89632 567.24096,165.80832 569.71872,165.80832 C572.22432,165.80832 573.58848,167.89632 573.58848,170.26272 C573.58848,172.65696 572.22432,174.74496 569.71872,174.74496 Z M591.60096,177 L591.60096,163.55328 L588.67776,163.55328 L588.67776,172.99104 C588.0096,173.88192 586.72896,174.74496 585.25344,174.74496 C583.58304,174.74496 582.52512,174.0768 582.52512,171.9888 L582.52512,163.55328 L579.60192,163.55328 L579.60192,173.07456 C579.60192,175.80288 581.0496,177.33408 583.94496,177.33408 C586.0608,177.33408 587.7312,176.27616 588.67776,175.21824 L588.67776,177 L591.60096,177 Z M600.87168,182.45664 C604.1568,182.45664 607.776,181.14816 607.776,176.304 L607.776,163.55328 L604.8528,163.55328 L604.8528,165.41856 C603.76704,163.97088 602.23584,163.2192 600.5376,163.2192 C597.0576,163.2192 594.57984,165.75264 594.57984,170.12352 C594.57984,174.55008 597.11328,177.02784 600.5376,177.02784 C602.29152,177.02784 603.82272,176.13696 604.8528,174.7728 L604.8528,176.304 C604.8528,179.17152 602.79264,180.0624 600.87168,180.0624 C599.08992,180.0624 597.69792,179.58912 596.58432,178.33632 L595.22016,180.45216 C596.89056,181.95552 598.5888,182.45664 600.87168,182.45664 Z M601.40064,174.41088 C599.06208,174.41088 597.58656,172.71264 597.58656,170.12352 C597.58656,167.5344 599.06208,165.80832 601.40064,165.80832 C602.7648,165.80832 604.18464,166.61568 604.8528,167.59008 L604.8528,172.62912 C604.18464,173.60352 602.7648,174.41088 601.40064,174.41088 Z M623.58912,177 L623.58912,167.47872 C623.58912,164.72256 622.14144,163.2192 619.24608,163.2192 C617.13024,163.2192 615.40416,164.30496 614.51328,165.36288 L614.51328,158.43072 L611.59008,158.43072 L611.59008,177 L614.51328,177 L614.51328,167.59008 C615.18144,166.6992 616.46208,165.80832 617.96544,165.80832 C619.608,165.80832 620.66592,166.4208 620.66592,168.53664 L620.66592,177 L623.58912,177 Z M631.44,177.33408 C632.77632,177.33408 633.63936,176.94432 634.16832,176.47104 L633.47232,174.24384 C633.2496,174.4944 632.74848,174.74496 632.19168,174.74496 C631.35648,174.74496 630.91104,174.04896 630.91104,173.13024 L630.91104,166.08672 L633.63936,166.08672 L633.63936,163.55328 L630.91104,163.55328 L630.91104,159.8784 L627.98784,159.8784 L627.98784,163.55328 L625.76064,163.55328 L625.76064,166.08672 L627.98784,166.08672 L627.98784,173.85408 C627.98784,176.10912 629.15712,177.33408 631.44,177.33408 Z M651.2064,177 L651.2064,161.29824 L656.83008,161.29824 L656.83008,158.43072 L642.32544,158.43072 L642.32544,161.29824 L647.94912,161.29824 L647.94912,177 L651.2064,177 Z M662.67648,177.33408 C666.96384,177.33408 669.5808,174.10464 669.5808,170.26272 C669.5808,166.39296 666.96384,163.2192 662.67648,163.2192 C658.38912,163.2192 655.77216,166.39296 655.77216,170.26272 C655.77216,174.10464 658.38912,177.33408 662.67648,177.33408 Z M662.67648,174.74496 C660.19872,174.74496 658.80672,172.65696 658.80672,170.26272 C658.80672,167.89632 660.19872,165.80832 662.67648,165.80832 C665.18208,165.80832 666.54624,167.89632 666.54624,170.26272 C666.54624,172.65696 665.18208,174.74496 662.67648,174.74496 Z M688.3728,177 L688.3728,169.28832 L695.55552,158.43072 L691.82496,158.43072 L686.73024,166.36512 L681.63552,158.43072 L677.90496,158.43072 L685.11552,169.28832 L685.11552,177 L688.3728,177 Z M700.09344,177.33408 C704.3808,177.33408 706.99776,174.10464 706.99776,170.26272 C706.99776,166.39296 704.3808,163.2192 700.09344,163.2192 C695.80608,163.2192 693.18912,166.39296 693.18912,170.26272 C693.18912,174.10464 695.80608,177.33408 700.09344,177.33408 Z M700.09344,174.74496 C697.61568,174.74496 696.22368,172.65696 696.22368,170.26272 C696.22368,167.89632 697.61568,165.80832 700.09344,165.80832 C702.59904,165.80832 703.9632,167.89632 703.9632,170.26272 C703.9632,172.65696 702.59904,174.74496 700.09344,174.74496 Z M721.97568,177 L721.97568,163.55328 L719.05248,163.55328 L719.05248,172.99104 C718.38432,173.88192 717.10368,174.74496 715.62816,174.74496 C713.95776,174.74496 712.89984,174.0768 712.89984,171.9888 L712.89984,163.55328 L709.97664,163.55328 L709.97664,173.07456 C709.97664,175.80288 711.42432,177.33408 714.31968,177.33408 C716.43552,177.33408 718.10592,176.27616 719.05248,175.21824 L719.05248,177 L721.97568,177 Z M742.41024,177 C745.91808,177 747.8112,174.85632 747.8112,171.96096 C747.8112,169.70592 746.22432,167.72928 744.21984,167.42304 C745.94592,167.06112 747.44928,165.47424 747.44928,163.16352 C747.44928,160.54656 745.584,158.43072 742.15968,158.43072 L733.02816,158.43072 L733.02816,177 L742.41024,177 Z M741.51936,166.08672 L736.28544,166.08672 L736.28544,161.29824 L741.51936,161.29824 C743.16192,161.29824 744.10848,162.32832 744.10848,163.69248 C744.10848,165.11232 743.16192,166.08672 741.51936,166.08672 Z M741.65856,174.13248 L736.28544,174.13248 L736.28544,168.95424 L741.65856,168.95424 C743.496,168.95424 744.4704,170.15136 744.4704,171.54336 C744.4704,173.15808 743.41248,174.13248 741.65856,174.13248 Z M750.456,182.26176 C750.84576,182.37312 751.68096,182.45664 752.09856,182.45664 C754.18656,182.4288 755.77344,181.70496 756.69216,179.42208 L763.17888,163.55328 L760.0608,163.55328 L756.13536,173.63136 L752.20992,163.55328 L749.064,163.55328 L754.60416,177.16704 L753.936,178.69824 C753.54624,179.58912 752.93376,179.86752 751.9872,179.86752 C751.65312,179.86752 751.17984,179.784 750.8736,179.6448 L750.456,182.26176 Z M779.9664,177 L779.9664,161.29824 L785.59008,161.29824 L785.59008,158.43072 L771.08544,158.43072 L771.08544,161.29824 L776.70912,161.29824 L776.70912,177 L779.9664,177 Z M791.43648,177.33408 C795.72384,177.33408 798.3408,174.10464 798.3408,170.26272 C798.3408,166.39296 795.72384,163.2192 791.43648,163.2192 C787.14912,163.2192 784.53216,166.39296 784.53216,170.26272 C784.53216,174.10464 787.14912,177.33408 791.43648,177.33408 Z M791.43648,174.74496 C788.95872,174.74496 787.56672,172.65696 787.56672,170.26272 C787.56672,167.89632 788.95872,165.80832 791.43648,165.80832 C793.94208,165.80832 795.30624,167.89632 795.30624,170.26272 C795.30624,172.65696 793.94208,174.74496 791.43648,174.74496 Z M808.55808,177.33408 C812.03808,177.33408 814.51584,174.68928 814.51584,170.26272 C814.51584,165.83616 812.03808,163.2192 808.55808,163.2192 C806.80416,163.2192 805.24512,164.0544 804.24288,165.39072 L804.24288,163.55328 L801.31968,163.55328 L801.31968,182.12256 L804.24288,182.12256 L804.24288,175.13472 C805.35648,176.55456 806.85984,177.33408 808.55808,177.33408 Z M807.69504,174.74496 C806.33088,174.74496 804.8832,173.90976 804.24288,172.90752 L804.24288,167.59008 C804.91104,166.58784 806.33088,165.80832 807.69504,165.80832 C810.00576,165.80832 811.50912,167.64576 811.50912,170.26272 C811.50912,172.87968 810.00576,174.74496 807.69504,174.74496 Z M821.50368,177.33408 C822.84,177.33408 823.70304,176.94432 824.232,176.47104 L823.536,174.24384 C823.31328,174.4944 822.81216,174.74496 822.25536,174.74496 C821.42016,174.74496 820.97472,174.04896 820.97472,173.13024 L820.97472,166.08672 L823.70304,166.08672 L823.70304,163.55328 L820.97472,163.55328 L820.97472,159.8784 L818.05152,159.8784 L818.05152,163.55328 L815.82432,163.55328 L815.82432,166.08672 L818.05152,166.08672 L818.05152,173.85408 C818.05152,176.10912 819.2208,177.33408 821.50368,177.33408 Z M837.48384,177 L837.48384,168.06336 C837.48384,164.472 834.86688,163.2192 831.86016,163.2192 C829.71648,163.2192 827.76768,163.88736 826.20864,165.39072 L827.4336,167.42304 C828.57504,166.25376 829.91136,165.69696 831.41472,165.69696 C833.25216,165.69696 834.56064,166.64352 834.56064,168.20256 L834.56064,170.20704 C833.5584,169.0656 832.0272,168.48096 830.18976,168.48096 C827.9904,168.48096 825.54048,169.7616 825.54048,172.87968 C825.54048,175.83072 828.01824,177.33408 830.18976,177.33408 C831.97152,177.33408 833.5584,176.69376 834.56064,175.52448 L834.56064,177 L837.48384,177 Z M831.35904,175.3296 C829.71648,175.3296 828.46368,174.38304 828.46368,172.90752 C828.46368,171.45984 829.71648,170.48544 831.35904,170.48544 C832.61184,170.48544 833.86464,170.95872 834.56064,171.87744 L834.56064,173.9376 C833.86464,174.85632 832.61184,175.3296 831.35904,175.3296 Z M844.19328,177 L844.19328,158.43072 L841.27008,158.43072 L841.27008,177 L844.19328,177 Z" id="path-11"></path>
        <filter x="-50%" y="-50%" width="200%" height="200%" filterUnits="objectBoundingBox" id="filter-12">
            <feOffset dx="0" dy="1" in="SourceAlpha" result="shadowOffsetOuter1"></feOffset>
            <feGaussianBlur stdDeviation="1" in="shadowOffsetOuter1" result="shadowBlurOuter1"></feGaussianBlur>
            <feColorMatrix values="0 0 0 0 0   0 0 0 0 0   0 0 0 0 0  0 0 0 0.236922554 0" type="matrix" in="shadowBlurOuter1"></feColorMatrix>
        </filter>
    </defs>
    <g id="Page-1" stroke="none" stroke-width="1" fill="none" fill-rule="evenodd">
        <g id="Final" transform="translate(-489.000000, -130.000000)">
            <g id="Group-2" transform="translate(489.000000, 130.000000)">
                <mask id="mask-2" fill="white">
                    <use xlink:href="#path-1"></use>
                </mask>
                <use id="Rectangle-12" fill="#3661A2" xlink:href="#path-1"></use>
                <g id="Group" mask="url(#mask-2)">
                    <g transform="translate(-127.000000, -116.000000)">
                        <g id="Rectangle-12">
                            <use fill="black" fill-opacity="1" filter="url(#filter-4)" xlink:href="#path-3"></use>
                            <use fill="#22D18D" fill-rule="evenodd" xlink:href="#path-3"></use>
                        </g>
                        <g id="toptal-black" stroke-width="1" fill-rule="evenodd" transform="translate(941.000000, 149.000000)">
                            <mask id="mask-6" fill="white">
                                <use xlink:href="#path-5"></use>
                            </mask>
                            <g id="Clip-2"></g>
                            <path d="M6.81612162,22.1653125 L15.9592297,13.0132083 L17.8433108,14.8986667 L8.69789189,24.0492292 L6.81612162,22.1653125 Z M24.8620135,15.7435 L9.66843243,0.539583333 L6.59582432,3.6144375 L12.2927432,9.31552083 L0,21.6164792 L15.1928108,36.8211667 L18.2654189,33.7463125 L12.5685,28.0421458 L24.8620135,15.7435 L24.8620135,15.7435 Z" id="Fill-1" fill="#FFFFFF" mask="url(#mask-6)"></path>
                            <path d="M35.3353784,4.95645833 L35.3353784,9.61460417 L40.3914324,9.61460417 L40.3914324,12.3048125 L35.3353784,12.3048125 L35.3353784,22.7850625 C35.3353784,25.1954583 36.0170676,26.5606042 37.9835676,26.5606042 C38.9464054,26.5606042 39.5087027,26.4796667 40.0301757,26.3201042 L40.1903919,29.0103125 C39.5087027,29.2508125 38.4249324,29.4920833 37.0607838,29.4920833 C35.4154865,29.4920833 34.0913919,28.9286042 33.2487162,28.0059167 C32.2858784,26.922125 31.8845676,25.1954583 31.8845676,22.9053125 L31.8845676,12.3048125 L28.8743514,12.3048125 L28.8743514,9.61460417 L31.8845676,9.61460417 L31.8845676,6.00016667 L35.3353784,4.95645833" id="Fill-4" fill="#FFFFFF"></path>
                            <g id="Group-8" transform="translate(40.054054, 8.479167)">
                                <mask id="mask-8" fill="white">
                                    <use xlink:href="#path-7"></use>
                                </mask>
                                <g id="Clip-6"></g>
                                <path d="M3.96381081,10.8926458 C3.96381081,15.1499583 6.37090541,18.36125 9.82248649,18.36125 C13.1931892,18.36125 15.7212162,15.1892708 15.7212162,10.8124792 C15.7212162,7.51947917 14.0751486,3.38395833 9.90259459,3.38395833 C5.76932432,3.38395833 3.96381081,7.23889583 3.96381081,10.8926458 Z M19.3322432,10.6922292 C19.3322432,17.8794792 14.3162432,21.0129167 9.66227027,21.0129167 C4.44522973,21.0129167 0.352783784,17.1572083 0.352783784,11.0136667 C0.352783784,4.5486875 4.64627027,0.733833333 9.98347297,0.733833333 C15.5602297,0.733833333 19.3322432,4.7891875 19.3322432,10.6922292 L19.3322432,10.6922292 Z" id="Fill-5" fill="#FFFFFF" mask="url(#mask-8)"></path>
                                <path d="M24.5808649,12.6601667 C24.5808649,13.1827917 24.6209189,13.6645625 24.7418514,14.1054792 C25.3842568,16.5551875 27.5094324,18.241 30.039,18.241 C33.7694189,18.241 35.9361892,15.1892708 35.9361892,10.7323125 C35.9361892,6.877375 33.8903514,3.54429167 30.1591622,3.54429167 C27.750527,3.54429167 25.4635946,5.23164583 24.8211892,7.881 C24.701027,8.3226875 24.5808649,8.8453125 24.5808649,9.28622917 L24.5808649,12.6601667 Z M21.09,7.48016667 C21.09,4.990375 21.0091216,2.98235417 20.9297838,1.1354375 L24.0586216,1.1354375 L24.2604324,4.46775 L24.3397703,4.46775 C25.7447432,2.09897917 28.0725,0.733833333 31.2421622,0.733833333 C35.9770135,0.733833333 39.5079324,4.70902083 39.5079324,10.5712083 C39.5079324,17.5588125 35.2136757,21.0129167 30.6405811,21.0129167 C28.0725,21.0129167 25.8248514,19.8882708 24.6602027,17.9611875 L24.5808649,17.9611875 L24.5808649,28.5208333 L21.09,28.5208333 L21.09,7.48016667 L21.09,7.48016667 Z" id="Fill-7" fill="#FFFFFF" mask="url(#mask-8)"></path>
                            </g>
                            <path d="M86.3026216,4.95645833 L86.3026216,9.61460417 L91.3579054,9.61460417 L91.3579054,12.3048125 L86.3026216,12.3048125 L86.3026216,22.7850625 C86.3026216,25.1954583 86.9843108,26.5606042 88.9508108,26.5606042 C89.9136486,26.5606042 90.4744054,26.4796667 90.9966486,26.3201042 L91.1576351,29.0103125 C90.4744054,29.2508125 89.3914054,29.4920833 88.0272568,29.4920833 C86.3827297,29.4920833 85.0586351,28.9286042 84.2159595,28.0059167 C83.2523514,26.922125 82.8518108,25.1954583 82.8518108,22.9053125 L82.8518108,12.3048125 L79.8415946,12.3048125 L79.8415946,9.61460417 L82.8518108,9.61460417 L82.8518108,6.00016667 L86.3026216,4.95645833" id="Fill-9" fill="#FFFFFF"></path>
                            <path d="M104.021919,19.1313125 C100.169027,19.050375 95.7962027,19.7333333 95.7962027,23.508875 C95.7962027,25.8367917 97.3197973,26.8812708 99.086027,26.8812708 C101.654108,26.8812708 103.300176,25.2748542 103.860932,23.629125 C103.981865,23.2275208 104.021919,22.8251458 104.021919,22.5044792 L104.021919,19.1313125 Z M107.432676,24.3914792 C107.432676,26.0788333 107.512784,27.7245625 107.712284,29.049625 L104.542622,29.049625 L104.263014,26.5999167 L104.142851,26.5999167 C103.057541,28.1261667 100.972419,29.4920833 98.2032973,29.4920833 C94.2702973,29.4920833 92.2652838,26.7201667 92.2652838,23.9097083 C92.2652838,19.2114792 96.4386081,16.6415208 103.941041,16.6816042 L103.941041,16.2807708 C103.941041,14.7136667 103.500446,11.7829583 99.5266216,11.8230417 C97.6810541,11.8230417 95.7962027,12.3448958 94.4312838,13.2683542 L93.6294324,10.8995833 C95.2331351,9.8951875 97.6009459,9.213 100.048865,9.213 C105.988419,9.213 107.432676,13.2683542 107.432676,17.1232917 L107.432676,24.3914792 L107.432676,24.3914792 Z" id="Fill-10" fill="#FFFFFF"></path>
                            <polygon id="Fill-11" fill="#FFFFFF" points="110.049284 29.049625 113.580203 29.049625 113.580203 0.539583333 110.049284 0.539583333"></polygon>
                        </g>
                        <g id="Subtle-Patterns.">
                            <use fill="black" fill-opacity="1" filter="url(#filter-10)" xlink:href="#path-9"></use>
                            <use fill="#FFFFFF" fill-rule="evenodd" xlink:href="#path-9"></use>
                        </g>
                        <g id="Brought-To-You-By-To">
                            <use fill="black" fill-opacity="1" filter="url(#filter-12)" xlink:href="#path-11"></use>
                            <use fill="#FFFFFF" fill-rule="evenodd" xlink:href="#path-11"></use>
                        </g>
                    </g>
                </g>
            </g>
        </g>
    </g>
</svg>